<svg version="1" xmlns="http://www.w3.org/2000/svg" width="933.333" height="933.333" viewBox="0 0 700.000000 700.000000"><path d="M497 11.9c-2.5.5-6.3 1.1-8.5 1.4-2.2.3-9.9 1.5-17 2.7-7.2 1.1-15.9 2.5-19.5 3.1-7.1 1.1-8.1 1.3-18.5 2.9-3.8.7-8.3 1.4-10 1.6-7.7 1.1-26.8 4.1-30 4.8-1.1.2-4.2.7-7 1-2.7.4-10.4 1.6-17 2.6s-13.6 2.1-15.5 2.4c-1.9.2-6.9.9-11 1.5-4.1.7-8.8 1.3-10.5 1.5-4.4.6-32.6 4.6-35.5 5.1-1.4.2-6.1.9-10.5 1.5-4.4.7-8.7 1.3-9.5 1.5-.8.1-4.4.6-8 1.1-3.6.4-6.7.8-7 .9-.4.1-3.4.5-14.5 2-9 1.3-12.3 1.8-14 2.1-1.1.2-5.8.9-10.4 1.4-4.7.6-8.7 1.3-9 1.4-.3.2-3.3.7-6.6 1-3.3.3-7.1.8-8.5 1.1-1.3.2-4 .7-6 .9-4.8.7-38.7 5.5-43 6.2-1.9.2-5.1.7-7 1-1.9.2-6.4.9-10 1.4-3.6.5-8.3 1.2-10.5 1.5-3.7.5-6.7 1-13.5 2-1.4.2-6.1.9-10.5 1.5s-9.1 1.2-10.5 1.5c-1.4.2-6.1.9-10.5 1.5-18 2.6-17.3 2.4-25.4 5.1-18.9 6.3-35.1 20.6-44 38.8-2.1 4.3-4.6 10.8-5.6 14.7-2 7.8-2.8 24.6-1.5 31.4.4 2.5 1.1 6.7 1.5 9.5 1 6.6 1 6.8 3.5 22.5 1.2 7.4 2.3 14.8 2.5 16.5.3 1.6 1.8 11.3 3.4 21.5 1.6 10.2 3.2 20.3 3.6 22.5.3 2.3.7 5.2 1 6.5.3 1.4 1.2 7.2 2 13 .9 5.8 2.5 16.1 3.6 23 1.1 6.9 2.2 13.6 2.4 15 .5 3.8 1.5 9.9 2.5 16 .5 3 1.2 7.1 1.5 9 .3 1.9.9 6.2 1.5 9.5 2.1 13 4 25.2 4.5 29 .3 2.2 1 6.5 1.5 9.5 1 5.5 5.4 34 6.5 41.5.3 2.3.7 5.2 1 6.5.3 1.4 1.4 8.6 2.5 16s3.1 20.2 4.5 28.5c1.3 8.2 2.6 16.8 3 19 .3 2.2 1.2 7.8 2 12.5s1.7 10.3 2 12.5c.5 3.6.8 5.4 2 13 .2 1.1.6 3.8 1 6 .3 2.2 1 6.5 1.5 9.5s1.2 7.5 1.5 10c.3 2.5 1.5 9.7 2.5 16 1 6.3 2.2 13.5 2.5 16 .3 2.5 1 6.7 1.5 9.5.6 2.7 1.2 6.3 1.4 8 1.3 10.5 1.9 13.8 3.7 20.4 3.8 14.1 9.4 23.7 20.3 34.7 8 7.9 18.2 14.4 28.4 18 9.6 3.3 13.2 3.9 25.2 3.9 9.3 0 13.1-.4 23-2 2.3-.4 18.7-3 25.5-4.1 1.7-.2 4.1-.6 5.5-.9 1.4-.2 4.3-.7 6.5-1 2.2-.3 9.4-1.4 16-2.5 6.6-1 14-2.2 16.5-2.5 6.5-.9 10.3-1.5 12-2 2.1-.5 11.3-1.7 12.5-1.6 7.6.7 21.8.5 27.5-.5 6.4-1 7.6-1 12.2.8 11.9 4.5 8.5 4.4 178.8 4.3l161.5-.2 7-2.2c20.8-6.7 36.6-22.3 43.9-43.5l2.1-6.1.2-242.5c.3-270.4.8-249.3-6.9-264.8-7-14.3-20.2-26-35.3-31.4-10.5-3.8-13.7-4.1-43-4.2l-26.9-.2-.9-3.9c-4.1-20.3-10.7-33.1-23.1-44.9-11-10.4-22.1-16.4-38.1-20.3-3.8-.9-24-1.2-28.5-.4zm26.5 25.6c12.2 3 26.3 14 32.3 25.3 2.5 4.7 6.2 15.5 6.2 18.2 0 .3-53.2.5-118.2.6-65.1 0-120.7.3-123.6.7-8.6 1.2-23.1 6.6-26.8 10.1-.6.6-2.4 2-4 3.1-11.9 8.5-21.7 25.4-24.2 42-.4 2.7-.7 112.5-.7 244 .1 192.2.4 239.9 1.4 243.5.7 2.5 1.4 4.9 1.6 5.5.5 2.3 1.7 5.3 3.9 9.8l2.4 4.7-2.4.6c-5.5 1.4-17.4-3.6-25.6-10.6-8-6.9-15.6-20.1-17.2-30-.3-1.9-1.4-9.6-2.6-17-1.1-7.4-2.3-14.6-2.5-16-.8-4.9-3.4-21.6-4-25.5-.3-2.3-.7-5.2-1-6.5-.3-1.3-.7-4.2-1.1-6.5-.3-2.2-1.4-9.2-2.4-15.5-2.4-14.8-3-18.8-3.6-22.8-.2-1.8-1.6-10.4-3-19s-2.7-17.5-3-19.7c-.3-2.2-.9-6-1.4-8.5-.5-2.5-1.2-6.6-1.5-9.1-.3-2.5-.8-5.7-1-7-.2-1.3-1.3-8.3-2.4-15.4-1.2-7.2-3.2-20.2-4.6-29-2.8-17.3-3.1-18.9-4-25-.7-5-.9-6.1-3.4-22.3-1.2-7.2-3-19.2-4.2-26.5-1.1-7.2-2.2-14.3-2.5-15.7-1.3-7.9-5.7-35.9-5.9-38-.4-3.6-1.5-10.2-2-12.6-.4-1.6-2.5-15.4-4-24.9-1.3-9-2.3-15.4-3.5-22.5-.5-3-1.2-7.3-1.5-9.5-.3-2.2-.7-5.1-1-6.5-.2-1.4-.6-4.2-.9-6.2-.9-6-1.7-10.9-2.2-13.2-.2-1.1-.7-4.1-1-6.6-.3-2.5-.8-5.4-1-6.5-5.3-25.8 2.5-46.7 22.1-59.6 8-5.3 15.2-7.3 39-10.9 11-1.7 21.1-3.3 22.5-3.5 7.4-1.2 10-1.6 15-2.5 3-.5 7.5-1.2 10-1.5 2.5-.3 6.8-1 9.5-1.5 2.8-.5 6.8-1.2 9-1.5 2.2-.3 5.1-.7 6.5-1 1.4-.2 4.3-.7 6.5-1 2.2-.3 5.1-.7 6.5-1 1.4-.2 4.3-.7 6.5-1 2.2-.3 10.8-1.6 19-3 8.3-1.3 16.8-2.6 19-3 2.3-.3 5-.7 6-.9 3.6-.7 10-1.7 13-2.1 1.7-.2 4.4-.6 6-.9 5.3-.9 22.7-3.6 25.9-4.1 1.7-.2 4.5-.6 6.1-.9 1.7-.2 4.8-.7 7-1.1 2.2-.3 6.5-1 9.5-1.5s6.9-1.2 8.5-1.4c6.5-.9 18.4-2.7 26.5-4.1 4.7-.7 10.3-1.6 12.5-2 2.2-.3 9.5-1.4 16.2-2.5 6.7-1.1 14.6-2.3 17.5-2.6 2.9-.4 5.4-.7 5.5-.8.4-.4 11.5 1.1 14.8 1.9zM144.1 92.2c-6 9.2-11.1 22.1-12.6 32-.8 4.9-.9 21.4-.2 22.5.3.5.8 2.8 1.1 5.3.3 2.5.8 5.4 1 6.5.2 1.1.7 4.5 1.1 7.5.4 3 .9 6.4 1.1 7.5.7 3.5 3.6 21.9 4.9 30.5 1.2 8.4 1.6 10.5 2.5 16 .5 3 1.1 6.8 1.4 8.5.3 1.6.8 4.8 1.1 7 .4 2.2.8 5.6 1.1 7.5.2 1.9.6 4.6.9 6 .3 1.4.7 4.3 1 6.5.3 2.2 1 6.2 1.5 9 .5 2.7 1.2 7 1.5 9.5.3 2.5 1.3 8.5 2.1 13.5.8 4.9 1.7 10.1 1.9 11.5.4 2.5 1.5 9.3 3.5 23 .6 4.1 1.2 8.2 1.5 9 .2.8.7 3.5 1 6 .2 2.5.7 5.4.9 6.5.2 1.1.6 4.1 1 6.6.7 4.6.8 5.5 2.6 15.9.5 3 1.2 7.3 1.4 9.5.3 2.2 1.5 9.8 2.7 17 1.1 7.1 2.2 13.9 2.4 15 .7 5.1 1.7 11.5 2.5 16.5.5 3 1.2 7.3 1.5 9.5.4 2.2 1.9 12.1 3.5 22 2.8 17.7 3.5 21.8 4.6 29.2.3 2.1.9 6.3 1.4 9.3.5 3 1.2 7.3 1.5 9.5.3 2.2 1 6.5 1.5 9.5s1.2 7.3 1.5 9.5c.3 2.3.8 5.2 1 6.5.3 1.4.8 4.5 1.1 6.9.3 2.5.7 4.8.9 5.1.2.3.6 3.3 1 6.5.3 3.3.8 6.7 1 7.5.3.8.7 3.3 1 5.5.4 2.2 1.3 8 2 13 .8 4.9 1.7 10.8 2 13 .3 2.2.7 4.9 1 6 .2 1.1.7 4.2 1 7 2.4 18.3 8.6 33.6 18.7 45.5 3.3 4 5.8 7.3 5.6 7.5-.2.2-2.5.6-5.2.9-2.7.4-5.2.9-5.5 1-.3.2-3.1.7-6.1 1-3 .4-6.6.8-8 1.1-1.4.2-7 1.1-12.5 2-12.7 2-22.4 3.6-25 4.2-5.9 1.4-23.6 1.2-28.6-.3-13-3.8-25.5-13.5-31.8-24.6-1.8-3.2-4.1-9.5-5.1-14-1.7-7.1-7.4-41.3-9.6-57.3-.3-2.8-.8-5.9-1-7-.2-1.1-.6-3.4-.9-5-.3-1.7-.7-4.4-1-6-.3-1.7-.7-5-1-7.5-.3-2.5-.8-5.2-1-6-.2-.8-.7-3.5-1-6-.3-2.5-1-7-1.5-10s-1.2-7.3-1.5-9.5c-.4-2.2-1.5-9.2-2.5-15.5-1-6.3-2.2-13.5-2.5-16-.3-2.5-1-6.8-1.5-9.5-.5-2.8-1.2-6.8-1.5-9-.3-2.3-.7-5.2-1-6.5-.3-1.3-.7-4.2-1-6.5-.3-2.2-.8-5.1-1-6.5-.2-1.4-.7-4.3-1-6.5-.6-4-.7-5-2.5-15.5-.5-3-1.1-7.2-1.4-9.3-.8-5.4-1.5-10-3.2-20.7-2.4-15.1-2.4-15.4-2.9-18-.2-1.4-.7-4.3-1-6.5-.3-2.2-1-6.5-1.5-9.5s-1.1-6.9-1.4-8.5c-.2-1.7-.8-5-1.2-7.5-.4-2.5-.8-5.4-1-6.5-.1-1.1-.7-4.9-1.3-8.5-.6-3.6-1.3-8.3-1.6-10.5-.3-2.2-.8-5.1-1-6.5-.5-2.5-.9-5-2-12.5-.3-2.2-1.2-7.8-2-12.5s-1.7-10.1-1.9-12c-.3-1.9-1-6.7-1.6-10.5-.6-3.9-1.3-8.1-1.5-9.5-.2-1.4-1-6.8-1.9-12-.8-5.2-1.8-11.3-2.1-13.5-.3-2.2-1.2-7.8-2-12.5s-1.7-10.5-2-13c-.4-2.5-1.8-11.3-3.1-19.5-4.7-27.5-4.2-37.3 2.4-50.4 5.5-11 18.6-22.4 29.6-25.6C65 101.1 76.8 99 88 97.6c2.5-.3 5.4-.8 6.5-1 1.1-.2 4.7-.7 8-1.1 3.2-.4 6.8-.9 8-1.1 1.1-.3 4-.7 6.5-.9 2.5-.3 5.4-.7 6.5-1 1.1-.2 4.3-.7 7-1.1 6.6-.9 14.9-2.1 15.3-2.3.2 0-.6 1.4-1.7 3.1zM344.5 138c3.2 9.6 8.5 26 11.9 36.5l6.2 19-3 .5c-5 .9-11 .3-11.5-1.2-.3-.7-1.9-5.4-3.5-10.3l-3.1-9H318.8l-1.2 3c-.7 1.6-2.1 6.1-3.1 9.8-1.3 4.9-2.4 7.1-3.8 7.6-1.8.7-11.7.6-12.2-.1-.1-.2 1.5-5.5 3.6-11.8 2-6.3 7.3-22.8 11.8-36.5l8-25h17l5.6 17.5zm105.3 130.3c10.6 3.7 17.7 8.2 25.9 16.5 5.5 5.6 7.3 7 8 5.8.8-1.5 9.2-10.3 11.5-12.1 4.7-3.7 12.4-7.7 19.3-10 34.9-11.8 72.7 9.8 80.4 45.8 2.8 13.2 2 23-3.6 43.2-4.2 15-14.8 39.1-21.5 48.7-1 1.4-1.8 2.9-1.8 3.2 0 1.3-17.7 25.9-23 32-16.6 19.1-37.5 39.3-47.9 46.2-6.1 4.1-9.3 5.1-17.6 5.3-13.2.3-19.4-3.7-44.5-28.9-29.3-29.4-49.2-59.9-59.4-91.2-5.6-17.3-7-25.6-7-41.8-.1-12.3.2-15.6 2.1-21.5 6.9-21.7 26.2-39.3 47.4-43 1.8-.3 3.5-.8 3.8-1.1.2-.2 5-.2 10.5 0 7.5.3 12 1 17.4 2.9zm166.1 298.2c.6.3 1.1 1.4 1.2 2.3 0 .9 1.3 5.3 2.8 9.7l2.7 8 11.5.1h11.6l3.2-10.5 3.2-10.6 6.2.2c8.2.2 7.9.2 7.2 1.3-.3.5-.8 1.8-1 2.9-.2 1-2.6 8.8-5.4 17.2-2.7 8.5-7.5 23.5-10.7 33.4-3.2 9.9-6.1 18.2-6.5 18.5-.6.4-12.2.5-16.1.1-.4-.1-4.8-12.8-9.8-28.4-5.1-15.5-10.3-31.5-11.6-35.5-2.9-8.9-2.9-9-.1-9.4 3.4-.5 10.4-.1 11.6.7z"/><path d="M328.1 137.7c-.7 3.2-2.6 10-4.3 15.1-1.6 5.2-2.7 9.6-2.4 10 .7.6 16.7.4 17.4-.2.2-.3-1-4.6-2.6-9.8-1.6-5.1-3.7-11.9-4.6-15.1-.9-3.1-1.8-5.7-1.9-5.7-.1 0-.8 2.6-1.6 5.7zM625.9 597.1c-.6.3-.6 1.7 0 3.5 3 9.3 7 22.3 7.6 24.9.6 2.6 1.2 1.2 4.7-10.5 5.7-19.3 5.9-18.2-3.5-18.4-4.4 0-8.3.2-8.8.5z"/></svg>